<?xml version="1.0" standalone="no"?>
<!DOCTYPE svg PUBLIC "-//W3C//DTD SVG 20010904//EN"
 "http://www.w3.org/TR/2001/REC-SVG-20010904/DTD/svg10.dtd">
<svg version="1.0" xmlns="http://www.w3.org/2000/svg"
 width="300.000000pt" height="91.000000pt" viewBox="0 0 300.000000 91.000000"
 preserveAspectRatio="xMidYMid meet">
<metadata>
Created by potrace 1.10, written by Peter Selinger 2001-2011
</metadata>
<g transform="translate(0.000000,91.000000) scale(0.050000,-0.050000)"
fill="#ffffff" stroke="none">
<path d="M707 1338 c-150 -43 -197 -177 -184 -515 14 -346 66 -383 542 -383
l336 0 -53 80 -53 80 -243 0 c-338 0 -332 -5 -332 300 0 305 -6 300 333 300
l244 0 41 67 c23 37 42 73 42 80 0 20 -602 12 -673 -9z"/>
<path d="M1514 1348 c-8 -8 -14 -216 -14 -461 l0 -447 100 0 100 0 0 200 0
200 250 0 250 0 0 -200 0 -200 90 0 90 0 0 460 0 460 -90 0 -90 0 0 -180 0
-180 -249 0 -249 0 -6 175 -6 175 -81 6 c-44 3 -87 -1 -95 -8z"/>
<path d="M2719 919 c-115 -243 -212 -450 -216 -460 -3 -11 38 -19 91 -19 96 0
99 2 142 90 l43 90 242 0 241 0 40 -90 c40 -89 40 -90 141 -90 55 0 97 8 94
18 -4 10 -101 217 -217 460 l-210 442 -91 0 -90 0 -210 -441z m388 52 c40 -93
73 -174 73 -180 0 -6 -72 -11 -160 -11 -88 0 -160 5 -160 12 0 28 146 348 159
348 8 0 47 -76 88 -169z"/>
<path d="M3768 1340 c-86 -34 -128 -116 -128 -248 0 -223 77 -272 429 -272
l230 0 13 -53 c8 -29 6 -76 -5 -105 l-18 -52 -285 -10 -284 -10 -40 -65 c-22
-36 -40 -70 -40 -75 0 -28 685 -9 741 20 154 80 163 411 14 494 -26 14 -155
29 -305 35 l-260 11 0 90 0 90 275 10 275 10 40 65 c22 36 40 70 40 75 0 17
-649 8 -692 -10z"/>
<path d="M4680 900 l0 -460 401 0 c316 0 398 5 387 25 -8 14 -32 50 -53 80
l-38 55 -258 0 -259 0 0 120 0 120 250 0 250 0 0 70 0 70 -250 0 -250 0 0 110
0 110 259 0 258 0 38 55 c21 30 45 66 53 80 11 20 -71 25 -387 25 l-401 0 0
-460z"/>
</g>
</svg>
